0
SECTION
2
HEADER
9
$ACADVER
1
AC1014
9
$DWGCODEPAGE
3
ANSI_1258
9
$INSBASE
10
0.0
20
0.0
30
0.0
9
$EXTMIN
10
105.8500
20
21.0200
30
0.0
9
$EXTMAX
10
105.9000
20
21.0700
30
0.0
0
ENDSEC
0
SECTION
2
TABLES
0
TABLE
2
LTYPE
70
1
0
LTYPE
2
CONTINUOUS
70
0
3
Solid line
72
65
73
0
40
0.0
0
ENDTAB
0
ENDSEC
0
SECTION
2
ENTITIES
0
POLYLINE
8
PARCELS
66
1
70
1
0
VERTEX
8
PARCELS
10
105.8500
20
21.0200
0
VERTEX
8
PARCELS
10
105.8550
20
21.0200
0
VERTEX
8
PARCELS
10
105.8550
20
21.0250
0
VERTEX
8
PARCELS
10
105.8500
20
21.0250
0
VERTEX
8
PARCELS
10
105.8500
20
21.0200
0
SEQEND
0
POLYLINE
8
PARCELS
66
1
70
1
0
VERTEX
8
PARCELS
10
105.8550
20
21.0200
0
VERTEX
8
PARCELS
10
105.8600
20
21.0200
0
VERTEX
8
PARCELS
10
105.8600
20
21.0250
0
VERTEX
8
PARCELS
10
105.8550
20
21.0250
0
VERTEX
8
PARCELS
10
105.8550
20
21.0200
0
SEQEND
0
POLYLINE
8
PARCELS
66
1
70
1
0
VERTEX
8
PARCELS
10
105.8600
20
21.0200
0
VERTEX
8
PARCELS
10
105.8650
20
21.0200
0
VERTEX
8
PARCELS
10
105.8650
20
21.0250
0
VERTEX
8
PARCELS
10
105.8600
20
21.0250
0
VERTEX
8
PARCELS
10
105.8600
20
21.0200
0
SEQEND
0
POLYLINE
8
PARCELS
66
1
70
1
0
VERTEX
8
PARCELS
10
105.8650
20
21.0200
0
VERTEX
8
PARCELS
10
105.8700
20
21.0200
0
VERTEX
8
PARCELS
10
105.8700
20
21.0250
0
VERTEX
8
PARCELS
10
105.8650
20
21.0250
0
VERTEX
8
PARCELS
10
105.8650
20
21.0200
0
SEQEND
0
POLYLINE
8
PARCELS
66
1
70
1
0
VERTEX
8
PARCELS
10
105.8700
20
21.0200
0
VERTEX
8
PARCELS
10
105.8750
20
21.0200
0
VERTEX
8
PARCELS
10
105.8750
20
21.0250
0
VERTEX
8
PARCELS
10
105.8700
20
21.0250
0
VERTEX
8
PARCELS
10
105.8700
20
21.0200
0
SEQEND
0
POLYLINE
8
PARCELS
66
1
70
1
0
VERTEX
8
PARCELS
10
105.8500
20
21.0250
0
VERTEX
8
PARCELS
10
105.8550
20
21.0250
0
VERTEX
8
PARCELS
10
105.8550
20
21.0300
0
VERTEX
8
PARCELS
10
105.8500
20
21.0300
0
VERTEX
8
PARCELS
10
105.8500
20
21.0250
0
SEQEND
0
POLYLINE
8
PARCELS
66
1
70
1
0
VERTEX
8
PARCELS
10
105.8550
20
21.0250
0
VERTEX
8
PARCELS
10
105.8600
20
21.0250
0
VERTEX
8
PARCELS
10
105.8600
20
21.0300
0
VERTEX
8
PARCELS
10
105.8550
20
21.0300
0
VERTEX
8
PARCELS
10
105.8550
20
21.0250
0
SEQEND
0
POLYLINE
8
PARCELS
66
1
70
1
0
VERTEX
8
PARCELS
10
105.8600
20
21.0250
0
VERTEX
8
PARCELS
10
105.8650
20
21.0250
0
VERTEX
8
PARCELS
10
105.8650
20
21.0300
0
VERTEX
8
PARCELS
10
105.8600
20
21.0300
0
VERTEX
8
PARCELS
10
105.8600
20
21.0250
0
SEQEND
0
POLYLINE
8
PARCELS
66
1
70
1
0
VERTEX
8
PARCELS
10
105.8650
20
21.0250
0
VERTEX
8
PARCELS
10
105.8700
20
21.0250
0
VERTEX
8
PARCELS
10
105.8700
20
21.0300
0
VERTEX
8
PARCELS
10
105.8650
20
21.0300
0
VERTEX
8
PARCELS
10
105.8650
20
21.0250
0
SEQEND
0
POLYLINE
8
PARCELS
66
1
70
1
0
VERTEX
8
PARCELS
10
105.8700
20
21.0250
0
VERTEX
8
PARCELS
10
105.8750
20
21.0250
0
VERTEX
8
PARCELS
10
105.8750
20
21.0300
0
VERTEX
8
PARCELS
10
105.8700
20
21.0300
0
VERTEX
8
PARCELS
10
105.8700
20
21.0250
0
SEQEND
0
POLYLINE
8
PARCELS
66
1
70
1
0
VERTEX
8
PARCELS
10
105.8750
20
21.0200
0
VERTEX
8
PARCELS
10
105.8800
20
21.0200
0
VERTEX
8
PARCELS
10
105.8800
20
21.0300
0
VERTEX
8
PARCELS
10
105.8750
20
21.0300
0
VERTEX
8
PARCELS
10
105.8750
20
21.0200
0
SEQEND
0
ENDSEC
0
SECTION
2
OBJECTS
0
ENDSEC
0
EOF 