0
SECTION
2
HEADER
9
$ACADVER
1
AC1014
9
$DWGCODEPAGE
3
ANSI_1258
9
$INSBASE
10
0.0
20
0.0
30
0.0
9
$EXTMIN
10
105.0
20
21.0
30
0.0
9
$EXTMAX
10
105.1
20
21.1
30
0.0
0
ENDSEC
0
SECTION
2
TABLES
0
ENDSEC
0
SECTION
2
BLOCKS
0
ENDSEC
0
SECTION
2
ENTITIES
0
POLYLINE
8
0
66
1
70
1
0
VERTEX
8
0
10
105.0000
20
21.0000
0
VERTEX
8
0
10
105.0100
20
21.0000
0
VERTEX
8
0
10
105.0100
20
21.0100
0
VERTEX
8
0
10
105.0000
20
21.0100
0
SEQEND
0
POLYLINE
8
0
66
1
70
1
0
VERTEX
8
0
10
105.0100
20
21.0000
0
VERTEX
8
0
10
105.0200
20
21.0000
0
VERTEX
8
0
10
105.0200
20
21.0100
0
VERTEX
8
0
10
105.0100
20
21.0100
0
SEQEND
0
POLYLINE
8
0
66
1
70
1
0
VERTEX
8
0
10
105.0200
20
21.0000
0
VERTEX
8
0
10
105.0300
20
21.0000
0
VERTEX
8
0
10
105.0300
20
21.0100
0
VERTEX
8
0
10
105.0200
20
21.0100
0
SEQEND
0
POLYLINE
8
0
66
1
70
1
0
VERTEX
8
0
10
105.0300
20
21.0000
0
VERTEX
8
0
10
105.0400
20
21.0000
0
VERTEX
8
0
10
105.0400
20
21.0100
0
VERTEX
8
0
10
105.0300
20
21.0100
0
SEQEND
0
POLYLINE
8
0
66
1
70
1
0
VERTEX
8
0
10
105.0400
20
21.0000
0
VERTEX
8
0
10
105.0500
20
21.0000
0
VERTEX
8
0
10
105.0500
20
21.0100
0
VERTEX
8
0
10
105.0400
20
21.0100
0
SEQEND
0
POLYLINE
8
0
66
1
70
1
0
VERTEX
8
0
10
105.0000
20
21.0100
0
VERTEX
8
0
10
105.0100
20
21.0100
0
VERTEX
8
0
10
105.0100
20
21.0200
0
VERTEX
8
0
10
105.0000
20
21.0200
0
SEQEND
0
POLYLINE
8
0
66
1
70
1
0
VERTEX
8
0
10
105.0100
20
21.0100
0
VERTEX
8
0
10
105.0200
20
21.0100
0
VERTEX
8
0
10
105.0200
20
21.0200
0
VERTEX
8
0
10
105.0100
20
21.0200
0
SEQEND
0
POLYLINE
8
0
66
1
70
1
0
VERTEX
8
0
10
105.0200
20
21.0100
0
VERTEX
8
0
10
105.0300
20
21.0100
0
VERTEX
8
0
10
105.0300
20
21.0200
0
VERTEX
8
0
10
105.0200
20
21.0200
0
SEQEND
0
POLYLINE
8
0
66
1
70
1
0
VERTEX
8
0
10
105.0300
20
21.0100
0
VERTEX
8
0
10
105.0400
20
21.0100
0
VERTEX
8
0
10
105.0400
20
21.0200
0
VERTEX
8
0
10
105.0300
20
21.0200
0
SEQEND
0
POLYLINE
8
0
66
1
70
1
0
VERTEX
8
0
10
105.0400
20
21.0100
0
VERTEX
8
0
10
105.0500
20
21.0100
0
VERTEX
8
0
10
105.0500
20
21.0200
0
VERTEX
8
0
10
105.0400
20
21.0200
0
SEQEND
0
POLYLINE
8
0
66
1
70
1
0
VERTEX
8
0
10
105.0500
20
21.0000
0
VERTEX
8
0
10
105.0600
20
21.0000
0
VERTEX
8
0
10
105.0600
20
21.0100
0
VERTEX
8
0
10
105.0500
20
21.0100
0
SEQEND
0
ENDSEC
0
SECTION
2
OBJECTS
0
ENDSEC
0
EOF 